# xmcd CD database file
#
# Track frame offsets:
#	150
#	34192
#	65365
#	86675
#	119014
#	142130
#	158198
#	189727
#	213145
#	242649
#
# Disc length: 3491 seconds
#
# Revision: 0
# Processed by: cddbd v1.5.2PL0 Copyright (c) Steve Scherf et al.
# Submitted via: CDex 1.51
#
DISCID=910da10a
DTITLE=Gabor Bolla, Giorgos Antoniou, Bernd Reiter - Remembering New York
DYEAR=2009
DGENRE=Jazz
TTITLE0=Lonnie's Lament
TTITLE1=A Weaver Of Dreams
TTITLE2=26 - 2
TTITLE3=My One And Only Love
TTITLE4=Paradox
TTITLE5=Blues To You
TTITLE6=It's Easy To Remember
TTITLE7=Lotus Blossom
TTITLE8=Namely You
TTITLE9=The Way You Look Tonight
EXTD=YEAR: 2009
EXTT0=
EXTT1=
EXTT2=
EXTT3=
EXTT4=
EXTT5=
EXTT6=
EXTT7=
EXTT8=
EXTT9=
PLAYORDER=
